<?xml version="1.0" standalone="no"?>
<!DOCTYPE svg PUBLIC "-//W3C//DTD SVG 20010904//EN"
 "http://www.w3.org/TR/2001/REC-SVG-20010904/DTD/svg10.dtd">
<svg version="1.0" xmlns="http://www.w3.org/2000/svg"
 width="189.000000pt" height="74.000000pt" viewBox="0 0 189.000000 74.000000"
 preserveAspectRatio="xMidYMid meet">
<metadata>
Created by potrace 1.10, written by Peter Selinger 2001-2011
</metadata>
<g transform="translate(0.000000,74.000000) scale(0.100000,-0.100000)"
fill="#000000" stroke="none">
<path d="M765 614 c-90 -13 -255 -74 -255 -95 0 -12 -1 -13 84 26 103 48 211
62 355 46 93 -10 118 -17 211 -60 84 -40 122 -52 190 -60 76 -8 88 -13 112
-40 36 -40 37 -71 3 -71 -14 0 -25 -5 -25 -11 0 -6 14 -9 32 -7 38 4 46 24 28
69 -21 49 -62 70 -153 80 -64 7 -102 19 -177 54 -52 25 -115 49 -140 54 -54
11 -223 21 -265 15z"/>
<path d="M830 560 c-26 -14 -56 -19 -117 -20 -45 0 -85 -4 -88 -10 -4 -6 25
-10 79 -10 68 0 95 5 131 22 25 12 45 26 45 30 0 12 -11 9 -50 -12z"/>
<path d="M879 537 c-19 -12 -35 -30 -37 -40 -3 -15 11 -17 162 -17 109 0 166
4 166 11 0 7 -50 9 -150 7 -83 -2 -150 0 -150 4 0 13 44 36 82 42 33 6 98 -3
141 -20 9 -3 17 -2 17 3 0 16 -73 33 -137 33 -46 0 -68 -5 -94 -23z"/>
<path d="M390 471 c-5 -11 -10 -29 -10 -40 0 -20 5 -21 189 -21 l189 0 11 31
c6 17 8 35 5 40 -3 5 -88 9 -189 9 -172 0 -185 -1 -195 -19z m35 -18 c-8 -32
-13 -39 -21 -30 -10 9 5 57 17 57 7 0 9 -10 4 -27z m44 -3 c-11 -31 -29 -41
-29 -16 0 25 12 46 26 46 10 0 11 -6 3 -30z m211 25 c0 -2 -5 -16 -12 -30 -11
-24 -15 -25 -100 -25 -91 0 -97 4 -78 41 9 17 22 19 100 19 50 0 90 -2 90 -5z
m35 -17 c-4 -13 -11 -27 -16 -32 -15 -17 -23 3 -11 29 15 32 36 34 27 3z m45
9 c0 -19 -27 -53 -36 -45 -9 10 12 58 26 58 5 0 10 -6 10 -13z"/>
<path d="M865 425 c-49 -48 -17 -145 48 -145 35 0 71 44 71 85 0 41 -36 85
-71 85 -13 0 -35 -11 -48 -25z m89 -17 c44 -63 -21 -141 -76 -91 -22 20 -24
76 -2 97 22 23 60 20 78 -6z"/>
<path d="M885 400 c-10 -11 -15 -23 -12 -27 4 -4 13 2 21 12 20 27 46 12 47
-27 0 -31 1 -31 11 -11 8 17 7 28 -6 48 -20 30 -37 32 -61 5z"/>
<path d="M1020 440 c0 -6 42 -10 105 -10 63 0 105 -4 105 -10 0 -5 -24 -10
-54 -10 -30 0 -58 -4 -61 -10 -4 -6 18 -10 59 -10 56 0 66 3 71 20 3 11 3 24
0 30 -8 13 -225 13 -225 0z"/>
<path d="M1303 435 c-45 -32 -38 -124 11 -146 37 -17 74 -3 93 35 37 79 -37
158 -104 111z m79 -22 c37 -33 11 -113 -37 -113 -13 0 -31 10 -39 22 -45 64
20 142 76 91z"/>
<path d="M1317 402 c-24 -26 -21 -39 3 -17 27 24 50 13 50 -25 0 -18 4 -29 10
-25 16 10 11 51 -8 68 -24 22 -35 21 -55 -1z"/>
<path d="M400 385 c0 -4 5 -15 10 -26 10 -18 23 -19 216 -19 120 0 203 4 200
9 -4 5 -83 7 -187 4 -174 -6 -181 -5 -209 16 -17 12 -30 19 -30 16z"/>
<path d="M450 380 c0 -6 53 -10 140 -10 87 0 140 4 140 10 0 6 -53 10 -140 10
-87 0 -140 -4 -140 -10z"/>
<path d="M1010 350 c0 -6 47 -10 120 -10 73 0 120 4 120 10 0 6 -47 10 -120
10 -73 0 -120 -4 -120 -10z"/>
<path d="M480 320 c0 -18 31 -39 56 -40 27 0 72 34 57 43 -6 4 -16 0 -23 -8
-16 -20 -49 -19 -72 2 -13 11 -18 12 -18 3z"/>
<path d="M55 159 c-4 -6 2 -13 14 -16 18 -4 21 -13 21 -54 0 -39 3 -49 16 -49
14 0 16 9 12 50 -4 44 -3 50 13 50 11 0 19 7 19 15 0 11 -12 15 -44 15 -25 0
-48 -5 -51 -11z"/>
<path d="M207 163 c-4 -3 -7 -33 -7 -65 0 -45 3 -58 15 -58 8 0 15 9 15 20 0
26 27 26 35 0 3 -11 13 -20 21 -20 17 0 17 5 4 30 -7 13 -6 21 5 30 20 17 19
33 -3 53 -18 17 -73 23 -85 10z m73 -38 c0 -9 -9 -15 -25 -15 -16 0 -25 6 -25
15 0 9 9 15 25 15 16 0 25 -6 25 -15z"/>
<path d="M376 154 c-10 -10 -16 -33 -16 -65 0 -49 13 -66 23 -29 8 29 55 27
59 -2 5 -39 23 -25 26 20 6 76 -49 120 -92 76z m62 -36 c3 -14 -3 -18 -27 -18
-29 0 -41 17 -24 34 13 13 48 1 51 -16z"/>
<path d="M540 150 c-43 -43 -9 -114 53 -108 46 4 43 32 -3 32 -32 1 -35 3 -35
31 0 27 3 30 32 31 39 0 53 11 33 24 -25 16 -59 11 -80 -10z"/>
<path d="M680 106 c0 -54 3 -66 16 -66 12 0 15 7 12 25 -5 22 -2 25 23 25 24
0 29 -4 29 -26 0 -16 5 -24 13 -21 6 2 10 13 9 23 -2 10 -4 38 -4 62 0 45 -24
61 -30 20 -4 -32 -45 -38 -44 -7 1 12 -5 24 -11 26 -10 4 -13 -13 -13 -61z"/>
<path d="M851 156 c-15 -18 -17 -109 -3 -114 8 -2 12 12 12 47 0 45 2 51 21
51 18 0 20 -5 18 -47 -2 -30 1 -48 9 -51 8 -2 12 12 12 48 0 44 3 51 18 48 13
-3 17 -13 17 -48 0 -25 5 -47 10 -50 14 -7 19 98 5 115 -13 16 -106 17 -119 1z"/>
<path d="M1037 163 c-14 -13 -6 -44 15 -65 13 -13 23 -29 23 -37 0 -8 6 -16
13 -18 7 -3 12 4 12 15 0 11 9 26 19 33 25 17 33 74 11 74 -9 0 -14 -8 -12
-21 1 -12 -4 -27 -13 -34 -20 -17 -45 3 -45 36 0 23 -10 31 -23 17z"/>
<path d="M1211 157 c-15 -18 -17 -110 -3 -115 8 -2 12 12 12 48 0 44 3 51 18
48 13 -3 17 -14 18 -48 1 -64 24 -65 24 0 0 44 3 51 18 48 13 -3 17 -14 17
-47 0 -26 5 -46 13 -48 8 -3 12 11 12 50 0 32 -5 59 -12 64 -18 14 -105 14
-117 0z"/>
<path d="M1411 144 c-12 -15 -21 -32 -21 -39 0 -7 9 -24 21 -39 39 -50 109
-24 109 41 0 61 -71 85 -109 37z m84 -23 c10 -33 -5 -52 -39 -49 -31 3 -44 23
-32 54 8 21 63 18 71 -5z"/>
<path d="M1580 105 l0 -65 33 0 c38 0 77 34 77 67 0 28 -45 63 -81 63 -29 0
-29 0 -29 -65z m75 0 c0 -25 -4 -30 -27 -33 -26 -3 -28 -1 -28 33 0 34 2 36
28 33 23 -3 27 -8 27 -33z"/>
<path d="M1750 155 c-19 -23 -7 -49 28 -60 43 -12 41 -29 -3 -22 -25 4 -35 2
-35 -8 0 -30 74 -34 90 -4 14 25 1 44 -35 53 -33 8 -33 30 0 24 29 -6 45 10
24 23 -21 13 -55 11 -69 -6z"/>
</g>
</svg>
